# Blender v2.76 (sub 0) OBJ File: 'cube.blend'
# www.blender.org
mtllib cube.mtl
o Cube_Cube.001
v 2.743546 -0.239721 -2.743546
v 2.743546 0.239721 -2.743546
v 2.743546 -0.239721 2.743546
v 2.743546 0.239721 2.743546
v -2.743546 -0.239721 -2.743546
v -2.743546 0.239721 -2.743546
v -2.743546 -0.239721 2.743546
v -2.743546 0.239721 2.743546
v -2.743546 0.239721 2.743546
v 2.743546 -0.239721 -2.743546
v 2.743546 0.239721 -2.743546
v 2.743546 -0.239721 2.743546
v 2.743546 0.239721 2.743546
v -2.743546 -0.239721 -2.743546
v -2.743546 0.239721 -2.743546
v -2.743546 -0.239721 2.743546
v -2.743546 0.239721 2.743546
v 2.743546 0.000000 -2.743546
v 2.743546 0.239721 0.000000
v 2.743546 0.000000 2.743546
v 2.743546 -0.239721 0.000000
v 0.000000 0.239721 2.743546
v -2.743546 0.000000 2.743546
v 0.000000 -0.239721 2.743546
v -2.743546 0.239721 0.000000
v -2.743546 0.000000 -2.743546
v -2.743546 -0.239721 0.000000
v 0.000000 0.239721 -2.743546
v 0.000000 -0.239721 -2.743546
v 0.000000 0.239721 0.000000
v 0.000000 -0.239721 0.000000
v 0.000000 0.000000 -2.743546
v -2.743546 0.000000 0.000000
v 0.000000 0.000000 2.743546
v 2.743546 0.000000 0.000000
v -2.743546 1.943057 0.000000
v -2.743546 1.943057 -2.743546
v 0.000000 1.943057 -2.743546
v 0.000000 1.943057 0.000000
vn 1.000000 0.000000 0.000000
vn 0.000000 0.000000 1.000000
vn -1.000000 0.000000 0.000000
vn 0.000000 0.000000 -1.000000
vn 0.000000 -1.000000 0.000000
vn 0.000000 1.000000 0.000000
usemtl None
s off
f 2//1 4//1 3//1 1//1
f 4//2 8//2 7//2 3//2
f 8//3 6//3 5//3 7//3
f 6//4 2//4 1//4 5//4
f 1//5 3//5 7//5 5//5
f 6//6 8//6 4//6 2//6
f 35//1 20//1 12//1 21//1
f 34//2 23//2 16//2 24//2
f 33//3 26//3 14//3 27//3
f 32//4 18//4 10//4 29//4
f 31//5 24//5 16//5 27//5
f 30//6 22//6 13//6 19//6
f 28//6 30//6 19//6 11//6
f 30//1 28//1 38//1 39//1
f 25//6 17//6 22//6 30//6
f 29//5 31//5 27//5 14//5
f 10//5 21//5 31//5 29//5
f 21//5 12//5 24//5 31//5
f 26//4 32//4 29//4 14//4
f 15//4 28//4 32//4 26//4
f 28//4 11//4 18//4 32//4
f 23//3 33//3 27//3 16//3
f 17//3 25//3 33//3 23//3
f 25//3 15//3 26//3 33//3
f 20//2 34//2 24//2 12//2
f 13//2 22//2 34//2 20//2
f 22//2 17//2 23//2 34//2
f 18//1 35//1 21//1 10//1
f 11//1 19//1 35//1 18//1
f 19//1 13//1 20//1 35//1
f 37//6 36//6 39//6 38//6
f 28//4 15//4 37//4 38//4
f 15//3 25//3 36//3 37//3
f 25//2 30//2 39//2 36//2
