# Blender v2.76 (sub 0) OBJ File: 'reversecube.blend'
# www.blender.org
mtllib reversecube.mtl
o Cube
v 10.140542 -10.140542 -10.140541
v 10.140542 -10.140542 10.140542
v -10.140543 -10.140542 10.140540
v -10.140538 -10.140542 -10.140546
v 10.140547 10.140542 -10.140536
v 10.140535 10.140542 10.140548
v -10.140546 10.140542 10.140538
v -10.140541 10.140542 -10.140542
vn -1.000000 -0.000000 -0.000000
vn 0.000000 1.000000 0.000000
vn 1.000000 0.000000 0.000000
vn -0.000000 -0.000000 1.000000
vn 0.000000 -1.000000 0.000000
vn 0.000000 0.000000 -1.000000
usemtl X
s off
f 1//1 2//1 6//1 5//1
usemtl Grey
f 1//2 4//2 3//2 2//2
f 3//3 4//3 8//3 7//3
f 5//4 8//4 4//4 1//4
usemtl Y
f 5//5 6//5 7//5 8//5
usemtl Z
f 2//6 3//6 7//6 6//6
