# Blender v2.76 (sub 0) OBJ File: 'bowlingpincollider.blend'
# www.blender.org
mtllib bowlingpincollider.mtl
o Pin_Mesh
v 0.028884 0.835373 0.000000
v 0.117769 0.765146 0.000000
v 0.241296 -0.271979 -0.000000
v 0.157165 -0.599209 -0.000000
v 0.100348 -0.725554 -0.000000
v 0.022434 0.835335 0.019852
v 0.094423 0.765009 0.071854
v 0.195518 -0.272247 0.140892
v 0.127820 -0.599380 0.090316
v 0.081995 -0.725661 0.056486
v 0.005548 0.835236 0.032121
v 0.033301 0.764651 0.116263
v 0.075670 -0.272948 0.227968
v 0.050994 -0.599830 0.146134
v 0.033946 -0.725942 0.091396
v -0.015325 0.835114 0.032121
v -0.042250 0.764209 0.116263
v -0.072470 -0.273815 0.227968
v -0.043968 -0.600386 0.146134
v -0.025445 -0.726290 0.091396
v -0.032212 0.835015 0.019852
v -0.103372 0.763851 0.071854
v -0.192318 -0.274517 0.140892
v -0.120794 -0.600836 0.090316
v -0.073494 -0.726571 0.056486
v -0.038662 0.834978 0.000000
v -0.126718 0.763714 -0.000000
v -0.238095 -0.274785 0.000000
v -0.150139 -0.601008 0.000000
v -0.091848 -0.726678 0.000000
v -0.032212 0.835015 -0.019852
v -0.103372 0.763851 -0.071854
v -0.192318 -0.274517 -0.140892
v -0.120794 -0.600836 -0.090316
v -0.073495 -0.726571 -0.056486
v -0.015325 0.835114 -0.032121
v -0.042250 0.764209 -0.116263
v -0.072470 -0.273815 -0.227968
v -0.043968 -0.600386 -0.146134
v -0.025446 -0.726290 -0.091396
v 0.005548 0.835236 -0.032121
v 0.033301 0.764651 -0.116263
v 0.075670 -0.272948 -0.227968
v 0.050994 -0.599830 -0.146134
v 0.033946 -0.725942 -0.091396
v 0.022434 0.835335 -0.019852
v 0.094423 0.765009 -0.071854
v 0.195518 -0.272247 -0.140892
v 0.127820 -0.599380 -0.090316
v 0.081995 -0.725661 -0.056486
vn 0.924000 -0.237600 0.299800
vn 0.874600 -0.393300 0.283400
vn 0.607600 0.769000 0.198900
vn 0.945000 0.112500 0.307200
vn -0.004500 0.765400 0.643600
vn 0.607600 0.769000 -0.198900
vn -0.004500 0.765400 -0.643600
vn -0.616500 0.761800 0.198900
vn 0.001400 -0.243000 0.970000
vn -0.000600 0.107000 0.994300
vn -0.536800 -0.401600 0.742000
vn -0.616500 0.761800 -0.198900
vn -0.585000 0.103600 0.804400
vn -0.568700 -0.246300 0.784800
vn -0.870000 -0.403500 0.283400
vn -0.946200 0.101500 0.307200
vn -0.921100 -0.248400 0.299800
vn -0.382700 0.763200 -0.520600
vn -0.870000 -0.403500 -0.283400
vn -0.921100 -0.248400 -0.299800
vn 0.005900 -1.000000 -0.000000
vn -0.946200 0.101500 -0.307200
vn -0.536800 -0.401600 -0.742000
vn 0.373800 0.767600 -0.520600
vn -0.585000 0.103600 -0.804400
vn -0.568700 -0.246300 -0.784800
vn 0.002300 -0.398400 -0.917200
vn -0.000600 0.107000 -0.994300
vn 0.001400 -0.243000 -0.970000
vn 0.541400 -0.395300 -0.742000
vn 0.583800 0.110400 -0.804400
vn 0.571600 -0.239600 -0.784800
vn -0.005900 1.000000 0.000000
vn 0.924000 -0.237600 -0.299800
vn 0.002300 -0.398400 0.917200
vn 0.571600 -0.239600 0.784800
vn 0.373800 0.767600 0.520600
vn -0.382700 0.763200 0.520600
vn 0.541400 -0.395300 0.742000
vn 0.583800 0.110400 0.804400
vn 0.874600 -0.393300 -0.283400
vn 0.945000 0.112500 -0.307200
usemtl None
s off
f 9//1 4//1 3//1 8//1
f 10//2 5//2 4//2 9//2
f 7//3 2//3 1//3 6//3
f 3//4 2//4 7//4 8//4
f 17//5 12//5 11//5 16//5
f 1//6 2//6 47//6 46//6
f 36//7 41//7 42//7 37//7
f 27//8 22//8 21//8 26//8
f 19//9 14//9 13//9 18//9
f 13//10 12//10 17//10 18//10
f 25//11 20//11 19//11 24//11
f 32//12 27//12 26//12 31//12
f 18//13 17//13 22//13 23//13
f 24//14 19//14 18//14 23//14
f 30//15 25//15 24//15 29//15
f 23//16 22//16 27//16 28//16
f 29//17 24//17 23//17 28//17
f 37//18 32//18 31//18 36//18
f 35//19 30//19 29//19 34//19
f 34//20 29//20 28//20 33//20
f 10//21 15//21 20//21 25//21 30//21 35//21 40//21 45//21 50//21 5//21
f 28//22 27//22 32//22 33//22
f 40//23 35//23 34//23 39//23
f 47//24 42//24 41//24 46//24
f 33//25 32//25 37//25 38//25
f 39//26 34//26 33//26 38//26
f 45//27 40//27 39//27 44//27
f 37//28 42//28 43//28 38//28
f 44//29 39//29 38//29 43//29
f 50//30 45//30 44//30 49//30
f 43//31 42//31 47//31 48//31
f 49//32 44//32 43//32 48//32
f 11//33 6//33 1//33 46//33 41//33 36//33 31//33 26//33 21//33 16//33
f 3//34 4//34 49//34 48//34
f 20//35 15//35 14//35 19//35
f 14//36 9//36 8//36 13//36
f 12//37 7//37 6//37 11//37
f 22//38 17//38 16//38 21//38
f 15//39 10//39 9//39 14//39
f 8//40 7//40 12//40 13//40
f 4//41 5//41 50//41 49//41
f 2//42 3//42 48//42 47//42
